<svg xmlns="http://www.w3.org/2000/svg" fill="none" viewBox="0 0 1920 827"><g clip-path="url(#bg_svg__a)"><path fill="#040406" d="M0 0h1920v894H0z"/><mask id="bg_svg__b" width="1920" height="807" x="0" y="0" maskUnits="userSpaceOnUse" style="mask-type:alpha"><path fill="#040406" d="M0 0h1920v807H0z"/></mask><g mask="url(#bg_svg__b)"><path fill="#040406" d="M0 0h1920v807H0z"/><path fill="url(#bg_svg__c)" d="M0 0h1920v807H0z"/><path fill="url(#bg_svg__d)" fill-opacity=".02" d="M558.27 115.101v22.6l-19.776 11.3-19.775-11.3v-22.6l19.775-11.3z"/><path fill="url(#bg_svg__e)" fill-opacity=".6" d="M558.27 115.101v22.6l-19.776 11.3-19.775-11.3v-22.6l19.775-11.3z"/><path fill="url(#bg_svg__f)" fill-opacity=".02" d="M516.121 115.101v22.6l-19.775 11.3-19.775-11.3v-22.6l19.775-11.3z"/><path fill="url(#bg_svg__g)" fill-opacity=".6" d="M516.121 115.101v22.6l-19.775 11.3-19.775-11.3v-22.6l19.775-11.3z"/><path fill="url(#bg_svg__h)" fill-opacity=".02" d="M705.621 151.175v22.6l-19.775 11.301-19.775-11.301v-22.6l19.775-11.3z"/><path fill="url(#bg_svg__i)" fill-opacity=".6" d="M705.621 151.175v22.6l-19.775 11.301-19.775-11.301v-22.6l19.775-11.3z"/><path fill="url(#bg_svg__j)" fill-opacity=".02" d="M621.332 151.175v22.6l-19.775 11.301-19.775-11.301v-22.6l19.775-11.3z"/><path fill="url(#bg_svg__k)" fill-opacity=".6" d="M621.332 151.175v22.6l-19.775 11.301-19.775-11.301v-22.6l19.775-11.3z"/><path fill="url(#bg_svg__l)" fill-opacity=".02" d="M579.16 151.175v22.6l-19.775 11.301-19.775-11.301v-22.6l19.775-11.3z"/><path fill="url(#bg_svg__m)" fill-opacity=".6" d="M579.16 151.175v22.6l-19.775 11.301-19.775-11.301v-22.6l19.775-11.3z"/><path fill="url(#bg_svg__n)" fill-opacity=".02" d="M410.551 151.175v22.6l-19.775 11.301L371 173.775v-22.6l19.776-11.3z"/><path fill="url(#bg_svg__o)" fill-opacity=".6" d="M410.551 151.175v22.6l-19.775 11.301L371 173.775v-22.6l19.776-11.3z"/><path fill="url(#bg_svg__p)" fill-opacity=".02" d="M769.051 187.197v22.6l-19.775 11.3-19.776-11.3v-22.6l19.776-11.301z"/><path fill="url(#bg_svg__q)" fill-opacity=".6" d="M769.051 187.197v22.6l-19.775 11.3-19.776-11.3v-22.6l19.776-11.301z"/><path fill="url(#bg_svg__r)" fill-opacity=".02" d="M558.27 187.197v22.6l-19.776 11.3-19.775-11.3v-22.6l19.775-11.301z"/><path fill="url(#bg_svg__s)" fill-opacity=".6" d="M558.27 187.197v22.6l-19.776 11.3-19.775-11.3v-22.6l19.775-11.301z"/><path fill="url(#bg_svg__t)" fill-opacity=".02" d="M473.98 187.197v22.6l-19.775 11.3-19.775-11.3v-22.6l19.775-11.301z"/><path fill="url(#bg_svg__u)" fill-opacity=".6" d="M473.98 187.197v22.6l-19.775 11.3-19.775-11.3v-22.6l19.775-11.301z"/><path fill="url(#bg_svg__v)" fill-opacity=".02" d="M621.332 222.972v22.6l-19.775 11.3-19.775-11.3v-22.6l19.775-11.3z"/><path fill="url(#bg_svg__w)" fill-opacity=".6" d="M621.332 222.972v22.6l-19.775 11.3-19.775-11.3v-22.6l19.775-11.3z"/><path fill="url(#bg_svg__x)" fill-opacity=".02" d="M452.691 222.972v22.6l-19.775 11.3-19.775-11.3v-22.6l19.775-11.3z"/><path fill="url(#bg_svg__y)" fill-opacity=".6" d="M452.691 222.972v22.6l-19.775 11.3-19.775-11.3v-22.6l19.775-11.3z"/><path fill="url(#bg_svg__z)" fill-opacity=".02" d="M410.551 222.972v22.6l-19.775 11.3-19.776-11.3v-22.6l19.776-11.3z"/><path fill="url(#bg_svg__A)" fill-opacity=".6" d="M410.551 222.972v22.6l-19.775 11.3-19.776-11.3v-22.6l19.776-11.3z"/><path fill="url(#bg_svg__B)" fill-opacity=".02" d="M642.16 43.576v22.6l-19.775 11.3-19.775-11.3v-22.6l19.775-11.3z"/><path fill="url(#bg_svg__C)" fill-opacity=".6" d="M642.16 43.576v22.6l-19.775 11.3-19.775-11.3v-22.6l19.775-11.3z"/><path fill="url(#bg_svg__D)" fill-opacity=".02" d="M515.691 43.576v22.6l-19.775 11.3-19.775-11.3v-22.6l19.775-11.3z"/><path fill="url(#bg_svg__E)" fill-opacity=".6" d="M515.691 43.576v22.6l-19.775 11.3-19.775-11.3v-22.6l19.775-11.3z"/><path fill="url(#bg_svg__F)" fill-opacity=".02" d="M642.52 259.247v22.601l-19.776 11.3-19.775-11.3v-22.601l19.775-11.3z"/><path fill="url(#bg_svg__G)" fill-opacity=".6" d="M642.52 259.247v22.601l-19.776 11.3-19.775-11.3v-22.601l19.775-11.3z"/><path fill="url(#bg_svg__H)" fill-opacity=".02" d="M516.066 259.247v22.601l-19.775 11.3-19.775-11.3v-22.601l19.775-11.3z"/><path fill="url(#bg_svg__I)" fill-opacity=".6" d="M516.066 259.247v22.601l-19.775 11.3-19.775-11.3v-22.601l19.775-11.3z"/><path fill="url(#bg_svg__J)" fill-opacity=".03" d="M705.621 79.464v22.6l-19.775 11.301-19.775-11.301v-22.6l19.775-11.3z"/><path fill="url(#bg_svg__K)" fill-opacity=".03" d="M663.48 79.464v22.6l-19.775 11.301-19.775-11.301v-22.6l19.775-11.3z"/><path fill="url(#bg_svg__L)" fill-opacity=".03" d="M621.332 79.464v22.6l-19.775 11.301-19.775-11.301v-22.6l19.775-11.3z"/><path fill="url(#bg_svg__M)" fill-opacity=".03" d="M726.91 115.101v22.6l-19.775 11.3-19.775-11.3v-22.6l19.775-11.3z"/><path fill="url(#bg_svg__N)" fill-opacity=".03" d="M600.441 115.101v22.6l-19.775 11.3-19.775-11.3v-22.6l19.775-11.3z"/><path fill="url(#bg_svg__O)" fill-opacity=".03" d="M473.98 115.101v22.6l-19.775 11.3-19.775-11.3v-22.6l19.775-11.3z"/><path fill="url(#bg_svg__P)" fill-opacity=".03" d="M431.801 115.101v22.6l-19.775 11.3-19.776-11.3v-22.6l19.776-11.3z"/><path fill="url(#bg_svg__Q)" fill-opacity=".03" d="M537.012 151.175v22.6l-19.776 11.301-19.775-11.301v-22.6l19.775-11.3z"/><path fill="url(#bg_svg__R)" fill-opacity=".03" d="M494.871 151.175v22.6l-19.775 11.301-19.775-11.301v-22.6l19.775-11.3z"/><path fill="url(#bg_svg__S)" fill-opacity=".03" d="M452.691 151.175v22.6l-19.775 11.301-19.775-11.301v-22.6l19.775-11.3z"/><path fill="url(#bg_svg__T)" fill-opacity=".03" d="M663.113 7.3v22.6l-19.775 11.3-19.775-11.3V7.3L643.338-4z"/><path fill="url(#bg_svg__U)" fill-opacity=".03" d="M620.973 7.3v22.6l-19.776 11.3-19.775-11.3V7.3L601.197-4z"/><path fill="url(#bg_svg__V)" fill-opacity=".03" d="M578.793 7.3v22.6l-19.775 11.3-19.775-11.3V7.3L559.018-4z"/><path fill="url(#bg_svg__W)" fill-opacity=".03" d="M705.621 222.972v22.6l-19.775 11.3-19.775-11.3v-22.6l19.775-11.3z"/><path fill="url(#bg_svg__X)" fill-opacity=".03" d="M663.48 222.972v22.6l-19.775 11.3-19.775-11.3v-22.6l19.775-11.3z"/><path fill="url(#bg_svg__Y)" fill-opacity=".03" d="M579.16 222.972v22.6l-19.775 11.3-19.775-11.3v-22.6l19.775-11.3z"/><path fill="url(#bg_svg__Z)" fill-opacity=".03" d="M726.457 43.576v22.6l-19.775 11.3-19.775-11.3v-22.6l19.775-11.3z"/><path fill="url(#bg_svg__aa)" fill-opacity=".03" d="M684.309 43.576v22.6l-19.776 11.3-19.775-11.3v-22.6l19.775-11.3z"/><path fill="url(#bg_svg__ab)" fill-opacity=".03" d="M557.84 43.576v22.6l-19.775 11.3-19.776-11.3v-22.6l19.776-11.3z"/><path fill="url(#bg_svg__ac)" fill-opacity=".03" d="M558.207 259.247v22.601l-19.775 11.3-19.775-11.3v-22.601l19.775-11.3z"/><path fill="url(#bg_svg__ad)" fill-opacity=".03" d="M473.91 259.247v22.601l-19.775 11.3-19.775-11.3v-22.601l19.775-11.3z"/><path fill="url(#bg_svg__ae)" fill-opacity=".03" d="M431.746 259.247v22.601l-19.775 11.3-19.775-11.3v-22.601l19.775-11.3z"/><path fill="url(#bg_svg__af)" fill-opacity=".06" d="M789.941 79.464v22.6l-19.775 11.301-19.775-11.301v-22.6l19.775-11.3z"/><path fill="url(#bg_svg__ag)" fill-opacity=".06" d="M747.801 79.464v22.6l-19.775 11.301-19.776-11.301v-22.6l19.776-11.3z"/><path fill="url(#bg_svg__ah)" fill-opacity=".06" d="M579.16 79.464v22.6l-19.775 11.301-19.775-11.301v-22.6l19.775-11.3z"/><path fill="url(#bg_svg__ai)" fill-opacity=".06" d="M537.012 79.464v22.6l-19.776 11.301-19.775-11.301v-22.6l19.775-11.3z"/><path fill="url(#bg_svg__aj)" fill-opacity=".06" d="M494.871 79.464v22.6l-19.775 11.301-19.775-11.301v-22.6l19.775-11.3z"/><path fill="url(#bg_svg__ak)" fill-opacity=".06" d="M452.691 79.464v22.6l-19.775 11.301-19.775-11.301v-22.6l19.775-11.3z"/><path fill="url(#bg_svg__al)" fill-opacity=".06" d="M410.551 79.464v22.6l-19.775 11.301L371 102.064v-22.6l19.776-11.3z"/><path fill="url(#bg_svg__am)" fill-opacity=".06" d="M769.051 115.101v22.6l-19.775 11.3-19.776-11.3v-22.6l19.776-11.3z"/><path fill="url(#bg_svg__an)" fill-opacity=".06" d="M684.738 115.101v22.6l-19.775 11.3-19.775-11.3v-22.6l19.775-11.3z"/><path fill="url(#bg_svg__ao)" fill-opacity=".06" d="M642.59 115.101v22.6l-19.775 11.3-19.776-11.3v-22.6l19.776-11.3z"/><path fill="url(#bg_svg__ap)" fill-opacity=".06" d="M789.941 151.175v22.6l-19.775 11.301-19.775-11.301v-22.6l19.775-11.3z"/><path fill="url(#bg_svg__aq)" fill-opacity=".06" d="M747.801 151.175v22.6l-19.775 11.301-19.776-11.301v-22.6l19.776-11.3z"/><path fill="url(#bg_svg__ar)" fill-opacity=".06" d="M726.91 187.197v22.6l-19.775 11.3-19.775-11.3v-22.6l19.775-11.301z"/><path fill="url(#bg_svg__as)" fill-opacity=".06" d="M684.738 187.197v22.6l-19.775 11.3-19.775-11.3v-22.6l19.775-11.301z"/><path fill="url(#bg_svg__at)" fill-opacity=".06" d="M642.59 187.197v22.6l-19.775 11.3-19.776-11.3v-22.6l19.776-11.301z"/><path fill="url(#bg_svg__au)" fill-opacity=".06" d="M600.441 187.197v22.6l-19.775 11.3-19.775-11.3v-22.6l19.775-11.301z"/><path fill="url(#bg_svg__av)" fill-opacity=".06" d="M516.121 187.197v22.6l-19.775 11.3-19.775-11.3v-22.6l19.775-11.301z"/><path fill="url(#bg_svg__aw)" fill-opacity=".06" d="M431.801 187.197v22.6l-19.775 11.3-19.776-11.3v-22.6l19.776-11.301z"/><path fill="url(#bg_svg__ax)" fill-opacity=".06" d="M747.426 7.3v22.6l-19.775 11.3-19.776-11.3V7.3L727.651-4z"/><path fill="url(#bg_svg__ay)" fill-opacity=".06" d="M705.262 7.3v22.6l-19.776 11.3-19.775-11.3V7.3L685.486-4z"/><path fill="url(#bg_svg__az)" fill-opacity=".06" d="M536.652 7.3v22.6l-19.775 11.3-19.775-11.3V7.3L516.877-4z"/><path fill="url(#bg_svg__aA)" fill-opacity=".06" d="M494.504 7.3v22.6l-19.775 11.3-19.776-11.3V7.3L474.729-4z"/><path fill="url(#bg_svg__aB)" fill-opacity=".06" d="M452.332 7.3v22.6l-19.775 11.3-19.775-11.3V7.3L432.557-4z"/><path fill="url(#bg_svg__aC)" fill-opacity=".06" d="M789.941 222.972v22.6l-19.775 11.3-19.775-11.3v-22.6l19.775-11.3z"/><path fill="url(#bg_svg__aD)" fill-opacity=".06" d="M747.801 222.972v22.6l-19.775 11.3-19.776-11.3v-22.6l19.776-11.3z"/><path fill="url(#bg_svg__aE)" fill-opacity=".06" d="M537.012 222.972v22.6l-19.776 11.3-19.775-11.3v-22.6l19.775-11.3z"/><path fill="url(#bg_svg__aF)" fill-opacity=".06" d="M494.871 222.972v22.6l-19.775 11.3-19.775-11.3v-22.6l19.775-11.3z"/><path fill="url(#bg_svg__aG)" fill-opacity=".06" d="M768.621 43.576v22.6l-19.775 11.3-19.775-11.3v-22.6l19.775-11.3z"/><path fill="url(#bg_svg__aH)" fill-opacity=".06" d="M599.988 43.576v22.6l-19.775 11.3-19.775-11.3v-22.6l19.775-11.3z"/><path fill="url(#bg_svg__aI)" fill-opacity=".06" d="M473.551 43.576v22.6l-19.775 11.3L434 66.176v-22.6l19.776-11.3z"/><path fill="url(#bg_svg__aJ)" fill-opacity=".06" d="M431.371 43.576v22.6l-19.775 11.3-19.775-11.3v-22.6l19.775-11.3z"/><path fill="url(#bg_svg__aK)" fill-opacity=".06" d="M768.988 259.247v22.601l-19.775 11.3-19.775-11.3v-22.601l19.775-11.3z"/><path fill="url(#bg_svg__aL)" fill-opacity=".06" d="M726.824 259.247v22.601l-19.775 11.3-19.775-11.3v-22.601l19.775-11.3z"/><path fill="url(#bg_svg__aM)" fill-opacity=".06" d="M684.676 259.247v22.601l-19.775 11.3-19.776-11.3v-22.601l19.776-11.3z"/><path fill="url(#bg_svg__aN)" fill-opacity=".06" d="M600.363 259.247v22.601l-19.775 11.3-19.775-11.3v-22.601l19.775-11.3z"/><path fill="url(#bg_svg__aO)" fill-opacity=".06" d="M663.48 151.175v22.6l-19.775 11.301-19.775-11.301v-22.6l19.775-11.3z"/><g opacity=".7"><path fill="#0F1118" stroke="url(#bg_svg__aP)" stroke-linecap="round" stroke-opacity=".04" d="M472.941 115.572v22.6l-19.775 11.3-19.775-11.3v-22.6l19.775-11.301z"/><path fill="#0F1118" d="M494.941 79.572v22.6l-19.775 11.3-19.775-11.3v-22.6l19.775-11.3z"/><path stroke="url(#bg_svg__aQ)" stroke-linecap="round" stroke-opacity=".2" d="M494.941 79.572v22.6l-19.775 11.3-19.775-11.3v-22.6l19.775-11.3z"/><path stroke="url(#bg_svg__aR)" stroke-linecap="round" stroke-opacity=".49" d="M494.941 79.572v22.6l-19.775 11.3-19.775-11.3v-22.6l19.775-11.3z"/></g><g opacity=".6"><path fill="#0E1218" d="M705.941 151.101v22.6l-19.775 11.3-19.775-11.3v-22.6l19.775-11.3z"/><path stroke="url(#bg_svg__aS)" stroke-linecap="round" stroke-opacity=".2" d="M705.941 151.101v22.6l-19.775 11.3-19.775-11.3v-22.6l19.775-11.3z"/><path stroke="url(#bg_svg__aT)" stroke-linecap="round" stroke-opacity=".49" d="M705.941 151.101v22.6l-19.775 11.3-19.775-11.3v-22.6l19.775-11.3z"/></g><g opacity=".6"><path fill="#10141A" d="M684.941 115.101v22.6l-19.775 11.3-19.775-11.3v-22.6l19.775-11.3z"/><path stroke="url(#bg_svg__aU)" stroke-linecap="round" stroke-opacity=".3" d="M684.941 115.101v22.6l-19.775 11.3-19.775-11.3v-22.6l19.775-11.3z"/><path stroke="url(#bg_svg__aV)" stroke-linecap="round" stroke-opacity=".49" d="M684.941 115.101v22.6l-19.775 11.3-19.775-11.3v-22.6l19.775-11.3z"/></g></g></g><defs><radialGradient id="bg_svg__c" cx="0" cy="0" r="1" gradientTransform="rotate(131.594 571.368 239.789)scale(1116.96 586.44)" gradientUnits="userSpaceOnUse"><stop stop-color="#26293B"/><stop offset="1" stop-color="#14161F" stop-opacity="0"/></radialGradient><radialGradient id="bg_svg__e" cx="0" cy="0" r="1" gradientTransform="rotate(105.285 173.99 244.223)scale(83.4521 108.94)" gradientUnits="userSpaceOnUse"><stop stop-color="#13151A" stop-opacity=".5"/><stop offset="1" stop-color="#13151A" stop-opacity="0"/></radialGradient><radialGradient id="bg_svg__g" cx="0" cy="0" r="1" gradientTransform="rotate(105.285 173.99 244.223)scale(83.4521 108.94)" gradientUnits="userSpaceOnUse"><stop stop-color="#13151A" stop-opacity=".5"/><stop offset="1" stop-color="#13151A" stop-opacity="0"/></radialGradient><radialGradient id="bg_svg__i" cx="0" cy="0" r="1" gradientTransform="rotate(105.285 173.99 244.223)scale(83.4521 108.94)" gradientUnits="userSpaceOnUse"><stop stop-color="#13151A" stop-opacity=".5"/><stop offset="1" stop-color="#13151A" stop-opacity="0"/></radialGradient><radialGradient id="bg_svg__k" cx="0" cy="0" r="1" gradientTransform="rotate(105.285 173.99 244.223)scale(83.4521 108.94)" gradientUnits="userSpaceOnUse"><stop stop-color="#13151A" stop-opacity=".5"/><stop offset="1" stop-color="#13151A" stop-opacity="0"/></radialGradient><radialGradient id="bg_svg__m" cx="0" cy="0" r="1" gradientTransform="rotate(105.285 173.99 244.223)scale(83.4521 108.94)" gradientUnits="userSpaceOnUse"><stop stop-color="#13151A" stop-opacity=".5"/><stop offset="1" stop-color="#13151A" stop-opacity="0"/></radialGradient><radialGradient id="bg_svg__o" cx="0" cy="0" r="1" gradientTransform="rotate(105.285 173.99 244.223)scale(83.4521 108.94)" gradientUnits="userSpaceOnUse"><stop stop-color="#13151A" stop-opacity=".5"/><stop offset="1" stop-color="#13151A" stop-opacity="0"/></radialGradient><radialGradient id="bg_svg__q" cx="0" cy="0" r="1" gradientTransform="rotate(105.285 173.99 244.223)scale(83.4521 108.94)" gradientUnits="userSpaceOnUse"><stop stop-color="#13151A" stop-opacity=".5"/><stop offset="1" stop-color="#13151A" stop-opacity="0"/></radialGradient><radialGradient id="bg_svg__s" cx="0" cy="0" r="1" gradientTransform="rotate(105.285 173.99 244.223)scale(83.4521 108.94)" gradientUnits="userSpaceOnUse"><stop stop-color="#13151A" stop-opacity=".5"/><stop offset="1" stop-color="#13151A" stop-opacity="0"/></radialGradient><radialGradient id="bg_svg__u" cx="0" cy="0" r="1" gradientTransform="rotate(105.285 173.99 244.223)scale(83.4521 108.94)" gradientUnits="userSpaceOnUse"><stop stop-color="#13151A" stop-opacity=".5"/><stop offset="1" stop-color="#13151A" stop-opacity="0"/></radialGradient><radialGradient id="bg_svg__w" cx="0" cy="0" r="1" gradientTransform="rotate(105.285 173.99 244.223)scale(83.4521 108.94)" gradientUnits="userSpaceOnUse"><stop stop-color="#13151A" stop-opacity=".5"/><stop offset="1" stop-color="#13151A" stop-opacity="0"/></radialGradient><radialGradient id="bg_svg__y" cx="0" cy="0" r="1" gradientTransform="rotate(105.285 173.99 244.223)scale(83.4521 108.94)" gradientUnits="userSpaceOnUse"><stop stop-color="#13151A" stop-opacity=".5"/><stop offset="1" stop-color="#13151A" stop-opacity="0"/></radialGradient><radialGradient id="bg_svg__A" cx="0" cy="0" r="1" gradientTransform="rotate(105.285 173.99 244.223)scale(83.4521 108.94)" gradientUnits="userSpaceOnUse"><stop stop-color="#13151A" stop-opacity=".5"/><stop offset="1" stop-color="#13151A" stop-opacity="0"/></radialGradient><radialGradient id="bg_svg__C" cx="0" cy="0" r="1" gradientTransform="rotate(105.285 173.99 244.223)scale(83.4521 108.94)" gradientUnits="userSpaceOnUse"><stop stop-color="#13151A" stop-opacity=".5"/><stop offset="1" stop-color="#13151A" stop-opacity="0"/></radialGradient><radialGradient id="bg_svg__E" cx="0" cy="0" r="1" gradientTransform="rotate(105.285 173.99 244.223)scale(83.4521 108.94)" gradientUnits="userSpaceOnUse"><stop stop-color="#13151A" stop-opacity=".5"/><stop offset="1" stop-color="#13151A" stop-opacity="0"/></radialGradient><radialGradient id="bg_svg__G" cx="0" cy="0" r="1" gradientTransform="rotate(105.285 173.99 244.223)scale(83.4521 108.94)" gradientUnits="userSpaceOnUse"><stop stop-color="#13151A" stop-opacity=".5"/><stop offset="1" stop-color="#13151A" stop-opacity="0"/></radialGradient><radialGradient id="bg_svg__I" cx="0" cy="0" r="1" gradientTransform="rotate(105.285 173.99 244.223)scale(83.4521 108.94)" gradientUnits="userSpaceOnUse"><stop stop-color="#13151A" stop-opacity=".5"/><stop offset="1" stop-color="#13151A" stop-opacity="0"/></radialGradient><radialGradient id="bg_svg__J" cx="0" cy="0" r="1" gradientTransform="matrix(-146.00023 9.50027 -10.70133 -164.4582 694.941 180.771)" gradientUnits="userSpaceOnUse"><stop stop-color="#263642"/><stop offset="1" stop-color="#263642" stop-opacity="0"/></radialGradient><radialGradient id="bg_svg__K" cx="0" cy="0" r="1" gradientTransform="matrix(-146.00023 9.50027 -10.70133 -164.4582 694.941 180.771)" gradientUnits="userSpaceOnUse"><stop stop-color="#263642"/><stop offset="1" stop-color="#263642" stop-opacity="0"/></radialGradient><radialGradient id="bg_svg__L" cx="0" cy="0" r="1" gradientTransform="matrix(-146.00023 9.50027 -10.70133 -164.4582 694.941 180.771)" gradientUnits="userSpaceOnUse"><stop stop-color="#263642"/><stop offset="1" stop-color="#263642" stop-opacity="0"/></radialGradient><radialGradient id="bg_svg__M" cx="0" cy="0" r="1" gradientTransform="matrix(-146.00023 9.50027 -10.70133 -164.4582 694.941 180.771)" gradientUnits="userSpaceOnUse"><stop stop-color="#263642"/><stop offset="1" stop-color="#263642" stop-opacity="0"/></radialGradient><radialGradient id="bg_svg__N" cx="0" cy="0" r="1" gradientTransform="matrix(-146.00023 9.50027 -10.70133 -164.4582 694.941 180.771)" gradientUnits="userSpaceOnUse"><stop stop-color="#263642"/><stop offset="1" stop-color="#263642" stop-opacity="0"/></radialGradient><radialGradient id="bg_svg__O" cx="0" cy="0" r="1" gradientTransform="matrix(-146.00023 9.50027 -10.70133 -164.4582 694.941 180.771)" gradientUnits="userSpaceOnUse"><stop stop-color="#263642"/><stop offset="1" stop-color="#263642" stop-opacity="0"/></radialGradient><radialGradient id="bg_svg__P" cx="0" cy="0" r="1" gradientTransform="matrix(-146.00023 9.50027 -10.70133 -164.4582 694.941 180.771)" gradientUnits="userSpaceOnUse"><stop stop-color="#263642"/><stop offset="1" stop-color="#263642" stop-opacity="0"/></radialGradient><radialGradient id="bg_svg__Q" cx="0" cy="0" r="1" gradientTransform="matrix(-146.00023 9.50027 -10.70133 -164.4582 694.941 180.771)" gradientUnits="userSpaceOnUse"><stop stop-color="#263642"/><stop offset="1" stop-color="#263642" stop-opacity="0"/></radialGradient><radialGradient id="bg_svg__R" cx="0" cy="0" r="1" gradientTransform="matrix(-146.00023 9.50027 -10.70133 -164.4582 694.941 180.771)" gradientUnits="userSpaceOnUse"><stop stop-color="#263642"/><stop offset="1" stop-color="#263642" stop-opacity="0"/></radialGradient><radialGradient id="bg_svg__S" cx="0" cy="0" r="1" gradientTransform="matrix(-146.00023 9.50027 -10.70133 -164.4582 694.941 180.771)" gradientUnits="userSpaceOnUse"><stop stop-color="#263642"/><stop offset="1" stop-color="#263642" stop-opacity="0"/></radialGradient><radialGradient id="bg_svg__T" cx="0" cy="0" r="1" gradientTransform="matrix(-146.00023 9.50027 -10.70133 -164.4582 694.941 180.771)" gradientUnits="userSpaceOnUse"><stop stop-color="#263642"/><stop offset="1" stop-color="#263642" stop-opacity="0"/></radialGradient><radialGradient id="bg_svg__U" cx="0" cy="0" r="1" gradientTransform="matrix(-146.00023 9.50027 -10.70133 -164.4582 694.941 180.771)" gradientUnits="userSpaceOnUse"><stop stop-color="#263642"/><stop offset="1" stop-color="#263642" stop-opacity="0"/></radialGradient><radialGradient id="bg_svg__V" cx="0" cy="0" r="1" gradientTransform="matrix(-146.00023 9.50027 -10.70133 -164.4582 694.941 180.771)" gradientUnits="userSpaceOnUse"><stop stop-color="#263642"/><stop offset="1" stop-color="#263642" stop-opacity="0"/></radialGradient><radialGradient id="bg_svg__W" cx="0" cy="0" r="1" gradientTransform="matrix(-146.00023 9.50027 -10.70133 -164.4582 694.941 180.771)" gradientUnits="userSpaceOnUse"><stop stop-color="#263642"/><stop offset="1" stop-color="#263642" stop-opacity="0"/></radialGradient><radialGradient id="bg_svg__X" cx="0" cy="0" r="1" gradientTransform="matrix(-146.00023 9.50027 -10.70133 -164.4582 694.941 180.771)" gradientUnits="userSpaceOnUse"><stop stop-color="#263642"/><stop offset="1" stop-color="#263642" stop-opacity="0"/></radialGradient><radialGradient id="bg_svg__Y" cx="0" cy="0" r="1" gradientTransform="matrix(-146.00023 9.50027 -10.70133 -164.4582 694.941 180.771)" gradientUnits="userSpaceOnUse"><stop stop-color="#263642"/><stop offset="1" stop-color="#263642" stop-opacity="0"/></radialGradient><radialGradient id="bg_svg__Z" cx="0" cy="0" r="1" gradientTransform="matrix(-146.00023 9.50027 -10.70133 -164.4582 694.941 180.771)" gradientUnits="userSpaceOnUse"><stop stop-color="#263642"/><stop offset="1" stop-color="#263642" stop-opacity="0"/></radialGradient><radialGradient id="bg_svg__aa" cx="0" cy="0" r="1" gradientTransform="matrix(-146.00023 9.50027 -10.70133 -164.4582 694.941 180.771)" gradientUnits="userSpaceOnUse"><stop stop-color="#263642"/><stop offset="1" stop-color="#263642" stop-opacity="0"/></radialGradient><radialGradient id="bg_svg__ab" cx="0" cy="0" r="1" gradientTransform="matrix(-146.00023 9.50027 -10.70133 -164.4582 694.941 180.771)" gradientUnits="userSpaceOnUse"><stop stop-color="#263642"/><stop offset="1" stop-color="#263642" stop-opacity="0"/></radialGradient><radialGradient id="bg_svg__ac" cx="0" cy="0" r="1" gradientTransform="matrix(-146.00023 9.50027 -10.70133 -164.4582 694.941 180.771)" gradientUnits="userSpaceOnUse"><stop stop-color="#263642"/><stop offset="1" stop-color="#263642" stop-opacity="0"/></radialGradient><radialGradient id="bg_svg__ad" cx="0" cy="0" r="1" gradientTransform="matrix(-146.00023 9.50027 -10.70133 -164.4582 694.941 180.771)" gradientUnits="userSpaceOnUse"><stop stop-color="#263642"/><stop offset="1" stop-color="#263642" stop-opacity="0"/></radialGradient><radialGradient id="bg_svg__ae" cx="0" cy="0" r="1" gradientTransform="matrix(-146.00023 9.50027 -10.70133 -164.4582 694.941 180.771)" gradientUnits="userSpaceOnUse"><stop stop-color="#263642"/><stop offset="1" stop-color="#263642" stop-opacity="0"/></radialGradient><radialGradient id="bg_svg__af" cx="0" cy="0" r="1" gradientTransform="matrix(-147.00004 -21.50001 22.4666 -153.60873 718.941 165.771)" gradientUnits="userSpaceOnUse"><stop stop-color="#5C6871"/><stop offset=".38" stop-color="#5C6871" stop-opacity=".45"/><stop offset="1" stop-color="#5C6871" stop-opacity="0"/></radialGradient><radialGradient id="bg_svg__ag" cx="0" cy="0" r="1" gradientTransform="matrix(-147.00004 -21.50001 22.4666 -153.60873 718.941 165.771)" gradientUnits="userSpaceOnUse"><stop stop-color="#5C6871"/><stop offset=".38" stop-color="#5C6871" stop-opacity=".45"/><stop offset="1" stop-color="#5C6871" stop-opacity="0"/></radialGradient><radialGradient id="bg_svg__ah" cx="0" cy="0" r="1" gradientTransform="matrix(-147.00004 -21.50001 22.4666 -153.60873 718.941 165.771)" gradientUnits="userSpaceOnUse"><stop stop-color="#5C6871"/><stop offset=".38" stop-color="#5C6871" stop-opacity=".45"/><stop offset="1" stop-color="#5C6871" stop-opacity="0"/></radialGradient><radialGradient id="bg_svg__ai" cx="0" cy="0" r="1" gradientTransform="matrix(-147.00004 -21.50001 22.4666 -153.60873 718.941 165.771)" gradientUnits="userSpaceOnUse"><stop stop-color="#5C6871"/><stop offset=".38" stop-color="#5C6871" stop-opacity=".45"/><stop offset="1" stop-color="#5C6871" stop-opacity="0"/></radialGradient><radialGradient id="bg_svg__aj" cx="0" cy="0" r="1" gradientTransform="matrix(-147.00004 -21.50001 22.4666 -153.60873 718.941 165.771)" gradientUnits="userSpaceOnUse"><stop stop-color="#5C6871"/><stop offset=".38" stop-color="#5C6871" stop-opacity=".45"/><stop offset="1" stop-color="#5C6871" stop-opacity="0"/></radialGradient><radialGradient id="bg_svg__ak" cx="0" cy="0" r="1" gradientTransform="matrix(-147.00004 -21.50001 22.4666 -153.60873 718.941 165.771)" gradientUnits="userSpaceOnUse"><stop stop-color="#5C6871"/><stop offset=".38" stop-color="#5C6871" stop-opacity=".45"/><stop offset="1" stop-color="#5C6871" stop-opacity="0"/></radialGradient><radialGradient id="bg_svg__al" cx="0" cy="0" r="1" gradientTransform="matrix(-147.00004 -21.50001 22.4666 -153.60873 718.941 165.771)" gradientUnits="userSpaceOnUse"><stop stop-color="#5C6871"/><stop offset=".38" stop-color="#5C6871" stop-opacity=".45"/><stop offset="1" stop-color="#5C6871" stop-opacity="0"/></radialGradient><radialGradient id="bg_svg__am" cx="0" cy="0" r="1" gradientTransform="matrix(-147.00004 -21.50001 22.4666 -153.60873 718.941 165.771)" gradientUnits="userSpaceOnUse"><stop stop-color="#5C6871"/><stop offset=".38" stop-color="#5C6871" stop-opacity=".45"/><stop offset="1" stop-color="#5C6871" stop-opacity="0"/></radialGradient><radialGradient id="bg_svg__an" cx="0" cy="0" r="1" gradientTransform="matrix(-147.00004 -21.50001 22.4666 -153.60873 718.941 165.771)" gradientUnits="userSpaceOnUse"><stop stop-color="#5C6871"/><stop offset=".38" stop-color="#5C6871" stop-opacity=".45"/><stop offset="1" stop-color="#5C6871" stop-opacity="0"/></radialGradient><radialGradient id="bg_svg__ao" cx="0" cy="0" r="1" gradientTransform="matrix(-147.00004 -21.50001 22.4666 -153.60873 718.941 165.771)" gradientUnits="userSpaceOnUse"><stop stop-color="#5C6871"/><stop offset=".38" stop-color="#5C6871" stop-opacity=".45"/><stop offset="1" stop-color="#5C6871" stop-opacity="0"/></radialGradient><radialGradient id="bg_svg__ap" cx="0" cy="0" r="1" gradientTransform="matrix(-147.00004 -21.50001 22.4666 -153.60873 718.941 165.771)" gradientUnits="userSpaceOnUse"><stop stop-color="#5C6871"/><stop offset=".38" stop-color="#5C6871" stop-opacity=".45"/><stop offset="1" stop-color="#5C6871" stop-opacity="0"/></radialGradient><radialGradient id="bg_svg__aq" cx="0" cy="0" r="1" gradientTransform="matrix(-147.00004 -21.50001 22.4666 -153.60873 718.941 165.771)" gradientUnits="userSpaceOnUse"><stop stop-color="#5C6871"/><stop offset=".38" stop-color="#5C6871" stop-opacity=".45"/><stop offset="1" stop-color="#5C6871" stop-opacity="0"/></radialGradient><radialGradient id="bg_svg__ar" cx="0" cy="0" r="1" gradientTransform="matrix(-147.00004 -21.50001 22.4666 -153.60873 718.941 165.771)" gradientUnits="userSpaceOnUse"><stop stop-color="#5C6871"/><stop offset=".38" stop-color="#5C6871" stop-opacity=".45"/><stop offset="1" stop-color="#5C6871" stop-opacity="0"/></radialGradient><radialGradient id="bg_svg__as" cx="0" cy="0" r="1" gradientTransform="matrix(-147.00004 -21.50001 22.4666 -153.60873 718.941 165.771)" gradientUnits="userSpaceOnUse"><stop stop-color="#5C6871"/><stop offset=".38" stop-color="#5C6871" stop-opacity=".45"/><stop offset="1" stop-color="#5C6871" stop-opacity="0"/></radialGradient><radialGradient id="bg_svg__at" cx="0" cy="0" r="1" gradientTransform="matrix(-147.00004 -21.50001 22.4666 -153.60873 718.941 165.771)" gradientUnits="userSpaceOnUse"><stop stop-color="#5C6871"/><stop offset=".38" stop-color="#5C6871" stop-opacity=".45"/><stop offset="1" stop-color="#5C6871" stop-opacity="0"/></radialGradient><radialGradient id="bg_svg__au" cx="0" cy="0" r="1" gradientTransform="matrix(-147.00004 -21.50001 22.4666 -153.60873 718.941 165.771)" gradientUnits="userSpaceOnUse"><stop stop-color="#5C6871"/><stop offset=".38" stop-color="#5C6871" stop-opacity=".45"/><stop offset="1" stop-color="#5C6871" stop-opacity="0"/></radialGradient><radialGradient id="bg_svg__av" cx="0" cy="0" r="1" gradientTransform="matrix(-147.00004 -21.50001 22.4666 -153.60873 718.941 165.771)" gradientUnits="userSpaceOnUse"><stop stop-color="#5C6871"/><stop offset=".38" stop-color="#5C6871" stop-opacity=".45"/><stop offset="1" stop-color="#5C6871" stop-opacity="0"/></radialGradient><radialGradient id="bg_svg__aw" cx="0" cy="0" r="1" gradientTransform="matrix(-147.00004 -21.50001 22.4666 -153.60873 718.941 165.771)" gradientUnits="userSpaceOnUse"><stop stop-color="#5C6871"/><stop offset=".38" stop-color="#5C6871" stop-opacity=".45"/><stop offset="1" stop-color="#5C6871" stop-opacity="0"/></radialGradient><radialGradient id="bg_svg__ax" cx="0" cy="0" r="1" gradientTransform="matrix(-147.00004 -21.50001 22.4666 -153.60873 718.941 165.771)" gradientUnits="userSpaceOnUse"><stop stop-color="#5C6871"/><stop offset=".38" stop-color="#5C6871" stop-opacity=".45"/><stop offset="1" stop-color="#5C6871" stop-opacity="0"/></radialGradient><radialGradient id="bg_svg__ay" cx="0" cy="0" r="1" gradientTransform="matrix(-147.00004 -21.50001 22.4666 -153.60873 718.941 165.771)" gradientUnits="userSpaceOnUse"><stop stop-color="#5C6871"/><stop offset=".38" stop-color="#5C6871" stop-opacity=".45"/><stop offset="1" stop-color="#5C6871" stop-opacity="0"/></radialGradient><radialGradient id="bg_svg__az" cx="0" cy="0" r="1" gradientTransform="matrix(-147.00004 -21.50001 22.4666 -153.60873 718.941 165.771)" gradientUnits="userSpaceOnUse"><stop stop-color="#5C6871"/><stop offset=".38" stop-color="#5C6871" stop-opacity=".45"/><stop offset="1" stop-color="#5C6871" stop-opacity="0"/></radialGradient><radialGradient id="bg_svg__aA" cx="0" cy="0" r="1" gradientTransform="matrix(-147.00004 -21.50001 22.4666 -153.60873 718.941 165.771)" gradientUnits="userSpaceOnUse"><stop stop-color="#5C6871"/><stop offset=".38" stop-color="#5C6871" stop-opacity=".45"/><stop offset="1" stop-color="#5C6871" stop-opacity="0"/></radialGradient><radialGradient id="bg_svg__aB" cx="0" cy="0" r="1" gradientTransform="matrix(-147.00004 -21.50001 22.4666 -153.60873 718.941 165.771)" gradientUnits="userSpaceOnUse"><stop stop-color="#5C6871"/><stop offset=".38" stop-color="#5C6871" stop-opacity=".45"/><stop offset="1" stop-color="#5C6871" stop-opacity="0"/></radialGradient><radialGradient id="bg_svg__aC" cx="0" cy="0" r="1" gradientTransform="matrix(-147.00004 -21.50001 22.4666 -153.60873 718.941 165.771)" gradientUnits="userSpaceOnUse"><stop stop-color="#5C6871"/><stop offset=".38" stop-color="#5C6871" stop-opacity=".45"/><stop offset="1" stop-color="#5C6871" stop-opacity="0"/></radialGradient><radialGradient id="bg_svg__aD" cx="0" cy="0" r="1" gradientTransform="matrix(-147.00004 -21.50001 22.4666 -153.60873 718.941 165.771)" gradientUnits="userSpaceOnUse"><stop stop-color="#5C6871"/><stop offset=".38" stop-color="#5C6871" stop-opacity=".45"/><stop offset="1" stop-color="#5C6871" stop-opacity="0"/></radialGradient><radialGradient id="bg_svg__aE" cx="0" cy="0" r="1" gradientTransform="matrix(-147.00004 -21.50001 22.4666 -153.60873 718.941 165.771)" gradientUnits="userSpaceOnUse"><stop stop-color="#5C6871"/><stop offset=".38" stop-color="#5C6871" stop-opacity=".45"/><stop offset="1" stop-color="#5C6871" stop-opacity="0"/></radialGradient><radialGradient id="bg_svg__aF" cx="0" cy="0" r="1" gradientTransform="matrix(-147.00004 -21.50001 22.4666 -153.60873 718.941 165.771)" gradientUnits="userSpaceOnUse"><stop stop-color="#5C6871"/><stop offset=".38" stop-color="#5C6871" stop-opacity=".45"/><stop offset="1" stop-color="#5C6871" stop-opacity="0"/></radialGradient><radialGradient id="bg_svg__aG" cx="0" cy="0" r="1" gradientTransform="matrix(-147.00004 -21.50001 22.4666 -153.60873 718.941 165.771)" gradientUnits="userSpaceOnUse"><stop stop-color="#5C6871"/><stop offset=".38" stop-color="#5C6871" stop-opacity=".45"/><stop offset="1" stop-color="#5C6871" stop-opacity="0"/></radialGradient><radialGradient id="bg_svg__aH" cx="0" cy="0" r="1" gradientTransform="matrix(-147.00004 -21.50001 22.4666 -153.60873 718.941 165.771)" gradientUnits="userSpaceOnUse"><stop stop-color="#5C6871"/><stop offset=".38" stop-color="#5C6871" stop-opacity=".45"/><stop offset="1" stop-color="#5C6871" stop-opacity="0"/></radialGradient><radialGradient id="bg_svg__aI" cx="0" cy="0" r="1" gradientTransform="matrix(-147.00004 -21.50001 22.4666 -153.60873 718.941 165.771)" gradientUnits="userSpaceOnUse"><stop stop-color="#5C6871"/><stop offset=".38" stop-color="#5C6871" stop-opacity=".45"/><stop offset="1" stop-color="#5C6871" stop-opacity="0"/></radialGradient><radialGradient id="bg_svg__aJ" cx="0" cy="0" r="1" gradientTransform="matrix(-147.00004 -21.50001 22.4666 -153.60873 718.941 165.771)" gradientUnits="userSpaceOnUse"><stop stop-color="#5C6871"/><stop offset=".38" stop-color="#5C6871" stop-opacity=".45"/><stop offset="1" stop-color="#5C6871" stop-opacity="0"/></radialGradient><radialGradient id="bg_svg__aK" cx="0" cy="0" r="1" gradientTransform="matrix(-147.00004 -21.50001 22.4666 -153.60873 718.941 165.771)" gradientUnits="userSpaceOnUse"><stop stop-color="#5C6871"/><stop offset=".38" stop-color="#5C6871" stop-opacity=".45"/><stop offset="1" stop-color="#5C6871" stop-opacity="0"/></radialGradient><radialGradient id="bg_svg__aL" cx="0" cy="0" r="1" gradientTransform="matrix(-147.00004 -21.50001 22.4666 -153.60873 718.941 165.771)" gradientUnits="userSpaceOnUse"><stop stop-color="#5C6871"/><stop offset=".38" stop-color="#5C6871" stop-opacity=".45"/><stop offset="1" stop-color="#5C6871" stop-opacity="0"/></radialGradient><radialGradient id="bg_svg__aM" cx="0" cy="0" r="1" gradientTransform="matrix(-147.00004 -21.50001 22.4666 -153.60873 718.941 165.771)" gradientUnits="userSpaceOnUse"><stop stop-color="#5C6871"/><stop offset=".38" stop-color="#5C6871" stop-opacity=".45"/><stop offset="1" stop-color="#5C6871" stop-opacity="0"/></radialGradient><radialGradient id="bg_svg__aN" cx="0" cy="0" r="1" gradientTransform="matrix(-147.00004 -21.50001 22.4666 -153.60873 718.941 165.771)" gradientUnits="userSpaceOnUse"><stop stop-color="#5C6871"/><stop offset=".38" stop-color="#5C6871" stop-opacity=".45"/><stop offset="1" stop-color="#5C6871" stop-opacity="0"/></radialGradient><radialGradient id="bg_svg__aO" cx="0" cy="0" r="1" gradientTransform="matrix(-147.00004 -21.50001 22.4666 -153.60873 718.941 165.771)" gradientUnits="userSpaceOnUse"><stop stop-color="#5C6871"/><stop offset=".38" stop-color="#5C6871" stop-opacity=".45"/><stop offset="1" stop-color="#5C6871" stop-opacity="0"/></radialGradient><radialGradient id="bg_svg__aP" cx="0" cy="0" r="1" gradientTransform="matrix(-21.00022 23.49985 -26.31982 -23.52024 475.293 114.742)" gradientUnits="userSpaceOnUse"><stop stop-color="#ABD1FF"/><stop offset="1" stop-color="#29405C" stop-opacity="0"/></radialGradient><radialGradient id="bg_svg__aQ" cx="0" cy="0" r="1" gradientTransform="matrix(-21.00022 23.49985 -26.31982 -23.52024 497.293 78.742)" gradientUnits="userSpaceOnUse"><stop stop-color="#ABD1FF"/><stop offset="1" stop-color="#29405C" stop-opacity="0"/></radialGradient><radialGradient id="bg_svg__aR" cx="0" cy="0" r="1" gradientTransform="matrix(34 0 0 38.08 448.441 91.272)" gradientUnits="userSpaceOnUse"><stop/><stop offset="1" stop-opacity="0"/></radialGradient><radialGradient id="bg_svg__aS" cx="0" cy="0" r="1" gradientTransform="matrix(-4.9999 22 -24.64007 -5.5999 694.793 140.271)" gradientUnits="userSpaceOnUse"><stop stop-color="#ABD1FF"/><stop offset="1" stop-color="#29405C" stop-opacity="0"/></radialGradient><radialGradient id="bg_svg__aT" cx="0" cy="0" r="1" gradientTransform="rotate(-23.46 758.185 -1494.875)scale(38.8607 43.524)" gradientUnits="userSpaceOnUse"><stop/><stop offset="1" stop-opacity="0"/></radialGradient><radialGradient id="bg_svg__aU" cx="0" cy="0" r="1" gradientTransform="matrix(-21.00022 23.49985 -26.31982 -23.52024 687.293 114.271)" gradientUnits="userSpaceOnUse"><stop stop-color="#ABD1FF"/><stop offset="1" stop-color="#29405C" stop-opacity="0"/></radialGradient><radialGradient id="bg_svg__aV" cx="0" cy="0" r="1" gradientTransform="matrix(38.49999 -15.5 17.36002 43.12002 636.793 141.771)" gradientUnits="userSpaceOnUse"><stop/><stop offset="1" stop-opacity="0"/></radialGradient><linearGradient id="bg_svg__d" x1="684.941" x2="607.441" y1="213.271" y2="341.771" gradientUnits="userSpaceOnUse"><stop stop-color="#20262A"/><stop offset="1" stop-color="#20262A" stop-opacity="0"/></linearGradient><linearGradient id="bg_svg__f" x1="684.941" x2="607.441" y1="213.271" y2="341.771" gradientUnits="userSpaceOnUse"><stop stop-color="#20262A"/><stop offset="1" stop-color="#20262A" stop-opacity="0"/></linearGradient><linearGradient id="bg_svg__h" x1="684.941" x2="607.441" y1="213.271" y2="341.771" gradientUnits="userSpaceOnUse"><stop stop-color="#20262A"/><stop offset="1" stop-color="#20262A" stop-opacity="0"/></linearGradient><linearGradient id="bg_svg__j" x1="684.941" x2="607.441" y1="213.271" y2="341.771" gradientUnits="userSpaceOnUse"><stop stop-color="#20262A"/><stop offset="1" stop-color="#20262A" stop-opacity="0"/></linearGradient><linearGradient id="bg_svg__l" x1="684.941" x2="607.441" y1="213.271" y2="341.771" gradientUnits="userSpaceOnUse"><stop stop-color="#20262A"/><stop offset="1" stop-color="#20262A" stop-opacity="0"/></linearGradient><linearGradient id="bg_svg__n" x1="684.941" x2="607.441" y1="213.271" y2="341.771" gradientUnits="userSpaceOnUse"><stop stop-color="#20262A"/><stop offset="1" stop-color="#20262A" stop-opacity="0"/></linearGradient><linearGradient id="bg_svg__p" x1="684.941" x2="607.441" y1="213.271" y2="341.771" gradientUnits="userSpaceOnUse"><stop stop-color="#20262A"/><stop offset="1" stop-color="#20262A" stop-opacity="0"/></linearGradient><linearGradient id="bg_svg__r" x1="684.941" x2="607.441" y1="213.271" y2="341.771" gradientUnits="userSpaceOnUse"><stop stop-color="#20262A"/><stop offset="1" stop-color="#20262A" stop-opacity="0"/></linearGradient><linearGradient id="bg_svg__t" x1="684.941" x2="607.441" y1="213.271" y2="341.771" gradientUnits="userSpaceOnUse"><stop stop-color="#20262A"/><stop offset="1" stop-color="#20262A" stop-opacity="0"/></linearGradient><linearGradient id="bg_svg__v" x1="684.941" x2="607.441" y1="213.271" y2="341.771" gradientUnits="userSpaceOnUse"><stop stop-color="#20262A"/><stop offset="1" stop-color="#20262A" stop-opacity="0"/></linearGradient><linearGradient id="bg_svg__x" x1="684.941" x2="607.441" y1="213.271" y2="341.771" gradientUnits="userSpaceOnUse"><stop stop-color="#20262A"/><stop offset="1" stop-color="#20262A" stop-opacity="0"/></linearGradient><linearGradient id="bg_svg__z" x1="684.941" x2="607.441" y1="213.271" y2="341.771" gradientUnits="userSpaceOnUse"><stop stop-color="#20262A"/><stop offset="1" stop-color="#20262A" stop-opacity="0"/></linearGradient><linearGradient id="bg_svg__B" x1="684.941" x2="607.441" y1="213.271" y2="341.771" gradientUnits="userSpaceOnUse"><stop stop-color="#20262A"/><stop offset="1" stop-color="#20262A" stop-opacity="0"/></linearGradient><linearGradient id="bg_svg__D" x1="684.941" x2="607.441" y1="213.271" y2="341.771" gradientUnits="userSpaceOnUse"><stop stop-color="#20262A"/><stop offset="1" stop-color="#20262A" stop-opacity="0"/></linearGradient><linearGradient id="bg_svg__F" x1="684.941" x2="607.441" y1="213.271" y2="341.771" gradientUnits="userSpaceOnUse"><stop stop-color="#20262A"/><stop offset="1" stop-color="#20262A" stop-opacity="0"/></linearGradient><linearGradient id="bg_svg__H" x1="684.941" x2="607.441" y1="213.271" y2="341.771" gradientUnits="userSpaceOnUse"><stop stop-color="#20262A"/><stop offset="1" stop-color="#20262A" stop-opacity="0"/></linearGradient><clipPath id="bg_svg__a"><path fill="#fff" d="M0 0h1920v827H0z"/></clipPath></defs></svg>