<svg xmlns="http://www.w3.org/2000/svg" fill="none" viewBox="0 0 550 324"><path stroke="url(#pattern-white-right-1-lg_svg__a)" stroke-width="1.809" d="M33 30.262h535.744M475.575 0v29.357m0 207.142V32.975"/><path stroke="url(#pattern-white-right-1-lg_svg__b)" stroke-width="1.809" d="M33 30.262h535.744M475.575 0v29.357m0 207.142V32.975"/><path stroke="url(#pattern-white-right-1-lg_svg__c)" stroke-width="1.809" d="M0 32.071h568.744M477.384 0v239.212"/><path stroke="url(#pattern-white-right-1-lg_svg__d)" stroke-width="1.809" d="M0 32.071h568.744M477.384 0v239.212"/><mask id="pattern-white-right-1-lg_svg__f" width="247" height="205" x="228" y="32" maskUnits="userSpaceOnUse" style="mask-type:alpha"><path fill="url(#pattern-white-right-1-lg_svg__e)" d="M474.755 236.499h246.037v203.523H474.755z" transform="rotate(-180 474.755 236.499)"/></mask><g stroke-width="1.809" mask="url(#pattern-white-right-1-lg_svg__f)"><circle cx="211.971" cy="211.971" r="211.971" stroke="#DBDCDE" transform="matrix(1 0 0 -1 100.035 407.05)"/><circle cx="199.683" cy="199.683" r="199.683" stroke="#DBDCDE" transform="matrix(1 0 0 -1 112.325 394.763)"/><circle cx="187.395" cy="187.395" r="187.395" stroke="#DBDCDE" transform="matrix(1 0 0 -1 124.611 382.475)"/><circle cx="175.107" cy="175.107" r="175.107" stroke="#DBDCDE" transform="matrix(1 0 0 -1 136.899 370.185)"/><circle cx="162.819" cy="162.819" r="162.819" stroke="#DBDCDE" transform="matrix(1 0 0 -1 149.185 357.897)"/><circle cx="150.53" cy="150.53" r="150.53" stroke="#DBDCDE" transform="matrix(1 0 0 -1 161.478 345.61)"/><circle cx="138.242" cy="138.242" r="138.242" stroke="#DBDCDE" transform="matrix(1 0 0 -1 173.767 333.321)"/><circle cx="125.954" cy="125.954" r="125.954" stroke="#DBDCDE" transform="matrix(1 0 0 -1 186.052 321.033)"/><circle cx="113.666" cy="113.666" r="113.666" stroke="#DBDCDE" transform="matrix(1 0 0 -1 198.342 308.746)"/><circle cx="101.378" cy="101.378" r="101.378" stroke="#DBDCDE" transform="matrix(1 0 0 -1 210.628 296.455)"/><circle cx="89.089" cy="89.089" r="89.089" stroke="#DBDCDE" transform="matrix(1 0 0 -1 222.916 284.168)"/><circle cx="76.801" cy="76.801" r="76.801" stroke="#DBDCDE" transform="matrix(1 0 0 -1 235.209 271.88)"/><circle cx="211.971" cy="211.971" r="211.971" stroke="#EFEFF0" transform="matrix(1 0 0 -1 101.138 405.946)"/><circle cx="199.683" cy="199.683" r="199.683" stroke="#EFEFF0" transform="matrix(1 0 0 -1 113.427 393.659)"/><circle cx="187.395" cy="187.395" r="187.395" stroke="#EFEFF0" stroke-opacity=".6" style="mix-blend-mode:overlay" transform="matrix(1 0 0 -1 125.713 381.371)"/><circle cx="175.107" cy="175.107" r="175.107" stroke="#EFEFF0" stroke-opacity=".6" style="mix-blend-mode:overlay" transform="matrix(1 0 0 -1 138.002 369.08)"/><circle cx="162.819" cy="162.819" r="162.819" stroke="#EFEFF0" stroke-opacity=".6" style="mix-blend-mode:overlay" transform="matrix(1 0 0 -1 150.287 356.793)"/><circle cx="150.53" cy="150.53" r="150.53" stroke="#EFEFF0" stroke-opacity=".6" style="mix-blend-mode:overlay" transform="matrix(1 0 0 -1 162.58 344.505)"/><circle cx="138.242" cy="138.242" r="138.242" stroke="#EFEFF0" stroke-opacity=".6" style="mix-blend-mode:overlay" transform="matrix(1 0 0 -1 174.869 332.217)"/><circle cx="125.954" cy="125.954" r="125.954" stroke="#EFEFF0" stroke-opacity=".6" style="mix-blend-mode:overlay" transform="matrix(1 0 0 -1 187.155 319.929)"/><circle cx="113.666" cy="113.666" r="113.666" stroke="#EFEFF0" stroke-opacity=".6" style="mix-blend-mode:overlay" transform="matrix(1 0 0 -1 199.444 307.642)"/><circle cx="101.378" cy="101.378" r="101.378" stroke="#EFEFF0" stroke-opacity=".6" style="mix-blend-mode:overlay" transform="matrix(1 0 0 -1 211.73 295.351)"/><circle cx="89.089" cy="89.089" r="89.089" stroke="#EFEFF0" stroke-opacity=".6" style="mix-blend-mode:overlay" transform="matrix(1 0 0 -1 224.019 283.063)"/><circle cx="76.801" cy="76.801" r="76.801" stroke="#EFEFF0" stroke-opacity=".6" style="mix-blend-mode:overlay" transform="matrix(1 0 0 -1 236.312 270.776)"/></g><defs><linearGradient id="pattern-white-right-1-lg_svg__a" x1="452.594" x2="393.917" y1="217.732" y2="-1254.74" gradientUnits="userSpaceOnUse"><stop offset=".001" stop-color="#E5E5E6"/><stop offset=".047" stop-color="#DADBDD"/><stop offset=".897" stop-color="#DADBDD"/><stop offset="1" stop-color="#DADBDD" stop-opacity="0"/></linearGradient><linearGradient id="pattern-white-right-1-lg_svg__b" x1="69" x2="541" y1="34.5" y2="34.5" gradientUnits="userSpaceOnUse"><stop offset=".001" stop-color="#E5E5E6"/><stop offset=".13" stop-color="#E5E5E6" stop-opacity="0"/><stop offset=".835" stop-color="#E5E5E6" stop-opacity="0"/><stop offset="1" stop-color="#E5E5E6"/></linearGradient><linearGradient id="pattern-white-right-1-lg_svg__c" x1="478.289" x2="478.289" y1="187.505" y2="-1232.42" gradientUnits="userSpaceOnUse"><stop offset=".019" stop-color="#E5E5E6"/><stop offset=".085" stop-color="#EDEDEE"/><stop offset=".929" stop-color="#F0F0F0" stop-opacity=".7"/><stop offset="1" stop-color="#E5E5E6"/></linearGradient><linearGradient id="pattern-white-right-1-lg_svg__d" x1="46" x2="566.115" y1="6.53" y2="6.53" gradientUnits="userSpaceOnUse"><stop offset=".019" stop-color="#E5E5E6"/><stop offset=".125" stop-color="#EFEFEF" stop-opacity="0"/><stop offset=".911" stop-color="#E8E8E8" stop-opacity="0"/><stop offset="1" stop-color="#E5E5E6"/></linearGradient><linearGradient id="pattern-white-right-1-lg_svg__e" x1="560.687" x2="483.879" y1="302.531" y2="427.105" gradientUnits="userSpaceOnUse"><stop stop-color="#D9D9D9" stop-opacity="0"/><stop offset="1" stop-color="#F8F8F8"/></linearGradient></defs></svg>